<svg width="19" height="19" viewBox="0 0 19 19" fill="none" xmlns="http://www.w3.org/2000/svg">
<path d="M6.78571 16.0954L1 17.7154L2.62 11.9297L13.2143 1.38684C13.334 1.26438 13.4771 1.16708 13.6348 1.10065C13.7927 1.03422 13.9623 1 14.1336 1C14.3048 1 14.4744 1.03422 14.6323 1.10065C14.7901 1.16708 14.9332 1.26438 15.0529 1.38684L17.3286 3.67541C17.449 3.79493 17.5447 3.93714 17.61 4.09381C17.6753 4.25048 17.7089 4.41854 17.7089 4.58827C17.7089 4.75799 17.6753 4.92605 17.61 5.08273C17.5447 5.2394 17.449 5.3816 17.3286 5.50112L6.78571 16.0954Z" stroke="black" stroke-linecap="round" stroke-linejoin="round"/>
</svg>
