<svg width="30" height="30" viewBox="0 0 30 30" fill="none" xmlns="http://www.w3.org/2000/svg">
<path d="M30 15C30 23.2843 23.2843 30 15 30C6.71573 30 0 23.2843 0 15C0 6.71573 6.71573 0 15 0C23.2843 0 30 6.71573 30 15Z" fill="#00C566"/>
<path d="M21.584 16.416C19.392 17.184 17.256 18.032 15.176 18.96C15.064 19.008 14.672 19.2 14 19.536C13.2 19.936 12.576 20.24 12.128 20.448C11.68 20.64 11.344 20.736 11.12 20.736C10.896 20.736 10.76 20.56 10.712 20.208C10.664 19.84 10.64 19.28 10.64 18.528C10.624 18.176 10.616 17.64 10.616 16.92C10.616 16.344 10.632 15.416 10.664 14.136C10.696 12.664 10.712 11.504 10.712 10.656C10.712 10.288 10.76 10.008 10.856 9.81598C10.968 9.62398 11.168 9.52798 11.456 9.52798C11.632 9.52798 11.824 9.60798 12.032 9.76798C12.256 9.91198 12.552 10.128 12.92 10.416C13.064 10.56 13.248 10.712 13.472 10.872C13.68 11.032 14.04 11.208 14.552 11.4C15.24 11.704 15.688 11.92 15.896 12.048C16.232 12.24 16.784 12.472 17.552 12.744C17.68 12.792 17.888 12.872 18.176 12.984C18.464 13.096 18.68 13.192 18.824 13.272C19.528 13.608 20.256 14 21.008 14.448C21.776 14.88 22.16 15.168 22.16 15.312C22.16 15.984 21.968 16.352 21.584 16.416Z" fill="white"/>
</svg>
