<svg width="18" height="18" viewBox="0 0 18 18" fill="none" xmlns="http://www.w3.org/2000/svg">
<path d="M1.28577 4.5H16.7143M5.78577 4.5V3.85714C5.78577 3.00466 6.12441 2.18709 6.72721 1.58429C7.33 0.9815 8.14757 0.642853 9.00005 0.642853C9.85253 0.642853 10.6701 0.9815 11.2729 1.58429C11.8757 2.18709 12.2143 3.00466 12.2143 3.85714V4.5M7.07148 8.35902V13.5039M10.9286 8.35902V13.5039M3.21434 4.5H14.7858V16.0714C14.7858 16.4124 14.6503 16.7395 14.4092 16.9806C14.1681 17.2216 13.841 17.3571 13.5001 17.3571H4.50005C4.15906 17.3571 3.83203 17.2216 3.59091 16.9806C3.3498 16.7395 3.21434 16.4124 3.21434 16.0714V4.5Z" stroke="black" stroke-linecap="round" stroke-linejoin="round"/>
</svg>
