<svg width="71" height="71" viewBox="0 0 71 71" fill="none" xmlns="http://www.w3.org/2000/svg">
<path d="M71 35.5C71 55.1061 55.1061 71 35.5 71C15.8939 71 0 55.1061 0 35.5C0 15.8939 15.8939 0 35.5 0C55.1061 0 71 15.8939 71 35.5Z" fill="#3CFFDC"/>
<path d="M49.6205 32.3874C52.2257 32.3874 53.9524 32.66 54.8006 33.2053C55.6489 33.69 56.073 34.7805 56.073 36.477C56.073 37.8099 55.4368 38.7793 54.1645 39.3851C52.8922 39.991 51.4078 40.2939 49.7114 40.2939L46.7123 40.3848C44.6524 40.506 43.1377 40.5666 42.1683 40.5666C41.3201 40.5666 40.7748 40.5363 40.5325 40.4757C40.4113 40.8998 40.3507 41.5965 40.3507 42.5659C40.2901 43.4141 40.381 44.747 40.6234 46.5646C40.6839 46.9282 40.7445 47.4431 40.8051 48.1096C40.8657 48.7761 40.896 49.3819 40.896 49.9272C40.896 51.6842 40.5628 53.0171 39.8963 53.9259C39.2299 54.7741 38.1393 55.1982 36.6246 55.1982C35.7158 55.1982 34.807 54.865 33.8982 54.1986C33.05 53.4715 32.6259 52.6839 32.6259 51.8357C32.6259 47.0493 32.5047 43.2324 32.2624 40.3848C30.6266 40.203 29.5966 40.1122 29.1725 40.1122C27.7184 40.1122 26.2946 40.203 24.9011 40.3848C23.0835 40.506 21.7809 40.5666 20.9933 40.5666C19.418 40.506 18.0851 40.203 16.9946 39.6578C15.9646 39.0519 15.4496 38.1431 15.4496 36.9314C15.4496 35.5984 15.7222 34.6594 16.2675 34.1141C17.1763 33.1447 18.9636 32.66 21.6294 32.66C23.0229 32.66 24.5679 32.5994 26.2643 32.4782C27.7184 32.3571 28.7181 32.2965 29.2634 32.2965C29.8086 32.2965 30.3236 32.3571 30.8083 32.4782C31.293 32.5388 31.7474 32.5691 32.1715 32.5691C32.2927 32.0238 32.3533 31.1453 32.3533 29.9336C32.3533 28.9036 32.2927 27.4193 32.1715 25.4805C32.0504 23.6629 31.9898 22.33 31.9898 21.4818C31.9898 19.6642 32.2321 18.3313 32.7168 17.483C33.2621 16.6348 34.3223 16.2107 35.8976 16.2107C37.2911 16.2107 38.3514 16.5137 39.0784 17.1195C39.8054 17.6648 40.169 18.4524 40.169 19.4824C40.2295 20.7547 40.1993 22.6026 40.0781 25.0261L39.9872 29.1157C39.9872 30.5698 40.0175 31.6603 40.0781 32.3874C41.5322 32.5085 42.5924 32.5691 43.2589 32.5691C44.6524 32.5691 45.6823 32.5388 46.3488 32.4782L49.6205 32.3874Z" fill="white"/>
</svg>
